<svg xmlns="http://www.w3.org/2000/svg" viewBox="0 0 640 500">
  <defs>
    <linearGradient id="mapFill" x1="0" y1="0" x2="1" y2="1">
      <stop offset="0" stop-color="#282d34"/>
      <stop offset="1" stop-color="#171b20"/>
    </linearGradient>
  </defs>
  <path d="M123 76l59 6 42-28 65 33 95 10 48 37 71 10 28 67-30 44 17 50-40 40-49 78-91-4-40 24-73-25-72 7-37-47-18-68-31-52 39-54-10-48z" fill="url(#mapFill)" stroke="#555b64" stroke-width="3"/>
  <path d="M182 82l32 336M289 87l9 356M384 98l-46 321M432 134l-134 309M116 156l385 99M83 258l395 87M118 378l311 45" fill="none" stroke="#373d45" stroke-width="1.5" opacity=".72"/>
</svg>
